<svg xmlns="http://www.w3.org/2000/svg" xmlns:xlink="http://www.w3.org/1999/xlink" xmlns:lucid="lucid" width="3483" height="830.72"><g transform="translate(-98.5 -170.77979884910002)" lucid:page-tab-id="GKklIFRjGB8J"><path d="M2217.87 326a6 6 0 0 1 6-6h88a6 6 0 0 1 6 6v48a6 6 0 0 1-6 6h-88a6 6 0 0 1-6-6z" stroke="#000" stroke-opacity="0" stroke-width="3" fill="#fff" fill-opacity="0"/><use xlink:href="#a" transform="matrix(1,0,0,1,2222.8686009658704,325) translate(35.66514756944444 32.150607638888886)"/><path d="M120 720h480v260H120z" stroke="#333" stroke-width="3" fill="#fff"/><use xlink:href="#b" transform="matrix(1,0,0,1,132,732) translate(101.99691358024702 129.38888888888886)"/><g fill="none"><path d="M160 900v80h-40v-80z"/><path d="M120 900l40 40-40 40" stroke="#333" stroke-width="3"/></g><path d="M900 500h200v200H900z" stroke="#5e5e5e" stroke-width="3" fill-opacity="0"/><use xlink:href="#c" transform="matrix(1,0,0,1,905,505) translate(67.6622178819445 123.35177951388874)"/><path d="M1101.88 701.5h33a6 6 0 0 1 6 6V734a6 6 0 0 1-6 6H864.5a6 6 0 0 1-6-6V606a6 6 0 0 1 6-6h33" stroke="#000" stroke-opacity="0" stroke-width="2" fill="none"/><path d="M602.5 850H744a6 6 0 0 0 6-6V654.32a6 6 0 0 1 6-6h133.5" stroke="#000" stroke-width="2" fill="none"/><path d="M602.53 850.98h-1.03V849h1.03z" stroke="#000" stroke-width=".05"/><path d="M896.54 648.32l-12.92 7.63V640.7z" stroke="#000" stroke-width="2"/><path d="M620 846a6 6 0 0 1 6-6h228a6 6 0 0 1 6 6v48a6 6 0 0 1-6 6H626a6 6 0 0 1-6-6z" stroke="#000" stroke-opacity="0" stroke-width="3" fill="#fff" fill-opacity="0"/><use xlink:href="#d" transform="matrix(1,0,0,1,625,845) translate(-6.3530815972222285 33.279079861111114)"/><path d="M721.06 771.74l70.34-70.34" stroke="#333" stroke-width="3" fill="none"/><path d="M662.78 706a6 6 0 0 1 6-6h88a6 6 0 0 1 6 6v48a6 6 0 0 1-6 6h-88a6 6 0 0 1-6-6z" stroke="#000" stroke-opacity="0" stroke-width="3" fill="#fff" fill-opacity="0"/><use xlink:href="#e" transform="matrix(1,0,0,1,667.7815699658704,705) translate(26.330295138888893 32.150607638888886)"/><path d="M460 526a6 6 0 0 1 6-6h148a6 6 0 0 1 6 6v48a6 6 0 0 1-6 6H466a6 6 0 0 1-6-6z" stroke="#000" stroke-opacity="0" stroke-width="3" fill="#fff" fill-opacity="0"/><use xlink:href="#f" transform="matrix(1,0,0,1,465,525) translate(9.656032986111114 32.150607638888886)"/><path d="M621 550h268.5" stroke="#000" stroke-width="2" fill="none"/><path d="M621.03 550.98H620V549h1.03z" stroke="#000" stroke-width=".05"/><path d="M896.54 550l-12.92 7.64v-15.28z" stroke="#000" stroke-width="2"/><path d="M1102.5 600h110.1a6 6 0 0 0 6-6V466a6 6 0 0 1 6-6h102.13" stroke="#000" stroke-width="2" fill="none"/><path d="M1102.53 600.98h-1.03V599h1.03z" stroke="#000" stroke-width=".05"/><path d="M1333.75 460l-12.9 7.64v-15.28z" stroke="#000" stroke-width="2"/><path d="M1120 606a6 6 0 0 1 6-6h148a6 6 0 0 1 6 6v48a6 6 0 0 1-6 6h-148a6 6 0 0 1-6-6z" stroke="#000" stroke-opacity="0" stroke-width="3" fill="#fff" fill-opacity="0"/><use xlink:href="#g" transform="matrix(1,0,0,1,1125,605) translate(37.660590277777786 32.150607638888886)"/><path d="M583.23 370h743.5" stroke="#000" stroke-width="2" fill="none"/><path d="M583.26 370.98h-2.1l1.07-.98-1.07-.98h2.1z" stroke="#000" stroke-width=".05"/><path d="M1333.75 370l-12.9 7.64v-15.28z" stroke="#000" stroke-width="2"/><path d="M525 320l55 50-55 50-105-.56v-98.88z" stroke="#000" stroke-width="3" fill="#fff"/><path d="M400 350.44a6 6 0 0 1 6-6h148a6 6 0 0 1 6 6v48a6 6 0 0 1-6 6H406a6 6 0 0 1-6-6z" stroke="#000" stroke-opacity="0" stroke-width="3" fill="#fff" fill-opacity="0"/><use xlink:href="#h" transform="matrix(1,0,0,1,405,349.4367901964473) translate(46.99544270833334 32.150607638888886)"/><path d="M852.14 403.6l55.45-68.23" stroke="#333" stroke-width="3" fill="none"/><path d="M808.75 326a6 6 0 0 1 6-6h88a6 6 0 0 1 6 6v48a6 6 0 0 1-6 6h-88a6 6 0 0 1-6-6z" stroke="#000" stroke-opacity="0" stroke-width="3" fill="#fff" fill-opacity="0"/><use xlink:href="#a" transform="matrix(1,0,0,1,813.7509408820489,325) translate(35.66514756944444 32.150607638888886)"/><path d="M1337.22 300h303.4v320h-303.4z" stroke="#000" stroke-width="3" fill="#fff"/><use xlink:href="#i" transform="matrix(1,0,0,1,1342.2184300341296,305) translate(129.4135802469136 135.9861111111111)"/><use xlink:href="#j" transform="matrix(1,0,0,1,1342.2184300341296,305) translate(109.17901234567904 194.65277777777771)"/><path d="M1307.56 350.44a6 6 0 0 1 6-6h108a6 6 0 0 1 6 6v39.12a6 6 0 0 1-6 6h-108a6 6 0 0 1-6-6z" stroke="#000" stroke-opacity="0" stroke-width="3" fill="#fff" fill-opacity="0"/><use xlink:href="#k" transform="matrix(1,0,0,1,1312.5597269624573,349.4367901964473) translate(45.66514756944444 31.13541666666666)"/><path d="M1540 340.13a6 6 0 0 1 6-6h108a6 6 0 0 1 6 6v39.13a6 6 0 0 1-6 6h-108a6 6 0 0 1-6-6z" stroke="#000" stroke-opacity="0" stroke-width="3" fill="#fff" fill-opacity="0"/><use xlink:href="#l" transform="matrix(1,0,0,1,1545,339.1322834645671) translate(45.66514756944444 31.13541666666666)"/><path d="M1320 440.44a6 6 0 0 1 6-6h108a6 6 0 0 1 6 6v39.12a6 6 0 0 1-6 6h-108a6 6 0 0 1-6-6z" stroke="#000" stroke-opacity="0" stroke-width="3" fill="#fff" fill-opacity="0"/><use xlink:href="#m" transform="matrix(1,0,0,1,1325,439.4367901964473) translate(36.33029513888889 31.13541666666666)"/><path d="M1337.22 521.73v96l60.68-48zM1869.66 297.73h303.4v320h-303.4z" stroke="#000" stroke-width="3" fill="#fff"/><use xlink:href="#i" transform="matrix(1,0,0,1,1874.6587030716723,302.7322834645672) translate(129.4135802469136 135.9861111111111)"/><use xlink:href="#j" transform="matrix(1,0,0,1,1874.6587030716723,302.7322834645672) translate(109.17901234567904 194.65277777777771)"/><path d="M1840 348.17a6 6 0 0 1 6-6h108a6 6 0 0 1 6 6v39.13a6 6 0 0 1-6 6h-108a6 6 0 0 1-6-6z" stroke="#000" stroke-opacity="0" stroke-width="3" fill="#fff" fill-opacity="0"/><use xlink:href="#k" transform="matrix(1,0,0,1,1845,347.1690736610145) translate(45.66514756944444 31.13541666666666)"/><path d="M2072.44 337.87a6 6 0 0 1 6-6h108a6 6 0 0 1 6 6V377a6 6 0 0 1-6 6h-108a6 6 0 0 1-6-6z" stroke="#000" stroke-opacity="0" stroke-width="3" fill="#fff" fill-opacity="0"/><use xlink:href="#l" transform="matrix(1,0,0,1,2077.4402730375427,336.8645669291343) translate(45.66514756944444 31.13541666666666)"/><path d="M1869.66 519.46v96l60.68-48z" stroke="#000" stroke-width="3" fill="#fff"/><path d="M1643.13 362.3h216.04" stroke="#000" stroke-width="2" fill="none"/><path d="M1643.16 363.3h-1.03v-1.96h1.03z" stroke="#000" stroke-width=".05"/><path d="M1866.2 362.3l-12.92 7.65v-15.27z" stroke="#000" stroke-width="2"/><path d="M1660.32 391.26a6 6 0 0 1 6-6h148a6 6 0 0 1 6 6v48a6 6 0 0 1-6 6h-148a6 6 0 0 1-6-6z" stroke="#000" stroke-opacity="0" stroke-width="3" fill="#fff" fill-opacity="0"/><use xlink:href="#n" transform="matrix(1,0,0,1,1665.315699658703,390.25870307167247) translate(18.99088541666667 32.150607638888886)"/><path d="M1726.5 390.62l46.98-57.8" stroke="#333" stroke-width="3" fill="none"/><path d="M1680 326a6 6 0 0 1 6-6h88a6 6 0 0 1 6 6v48a6 6 0 0 1-6 6h-88a6 6 0 0 1-6-6z" stroke="#000" stroke-opacity="0" stroke-width="3" fill="#fff" fill-opacity="0"/><use xlink:href="#a" transform="matrix(1,0,0,1,1685,325) translate(35.66514756944444 32.150607638888886)"/><path d="M2407.53 297.73h303.4v320h-303.4z" stroke="#000" stroke-width="3" fill="#fff"/><use xlink:href="#i" transform="matrix(1,0,0,1,2412.5273040375428,302.7322834645672) translate(129.4135802469136 135.9861111111111)"/><use xlink:href="#j" transform="matrix(1,0,0,1,2412.5273040375428,302.7322834645672) translate(109.17901234567904 194.65277777777771)"/><path d="M2377.87 348.17a6 6 0 0 1 6-6h108a6 6 0 0 1 6 6v39.13a6 6 0 0 1-6 6h-108a6 6 0 0 1-6-6z" stroke="#000" stroke-opacity="0" stroke-width="3" fill="#fff" fill-opacity="0"/><use xlink:href="#k" transform="matrix(1,0,0,1,2382.8686009658704,347.1690736610145) translate(45.66514756944444 31.13541666666666)"/><path d="M2610.3 337.87a6 6 0 0 1 6-6h108a6 6 0 0 1 6 6V377a6 6 0 0 1-6 6h-108a6 6 0 0 1-6-6z" stroke="#000" stroke-opacity="0" stroke-width="3" fill="#fff" fill-opacity="0"/><use xlink:href="#l" transform="matrix(1,0,0,1,2615.308874003413,336.8645669291343) translate(45.66514756944444 31.13541666666666)"/><path d="M2407.53 519.46v96l60.68-48z" stroke="#000" stroke-width="3" fill="#fff"/><path d="M2181 362.3h216.04M2181.03 362.3H2180" stroke="#000" stroke-width="2" fill="none"/><path d="M2404.06 362.3l-12.9 7.65v-15.27z" stroke="#000" stroke-width="2"/><path d="M2198.18 391.26a6 6 0 0 1 6-6h148a6 6 0 0 1 6 6v48a6 6 0 0 1-6 6h-148a6 6 0 0 1-6-6z" stroke="#000" stroke-opacity="0" stroke-width="3" fill="#fff" fill-opacity="0"/><use xlink:href="#o" transform="matrix(1,0,0,1,2203.1843006245736,390.25870307167247) translate(18.99088541666667 32.150607638888886)"/><path d="M2262.95 392.4l48.4-59.6" stroke="#333" stroke-width="3" fill="none"/><path d="M2733.5 349.38a6 6 0 0 1 6-6h148a6 6 0 0 1 6 6v68.5a6 6 0 0 1-6 6h-148a6 6 0 0 1-6-6z" stroke="#000" stroke-opacity="0" stroke-width="3" fill="#fff" fill-opacity="0"/><use xlink:href="#p" transform="matrix(1,0,0,1,2738.496743704414,348.3838471524235) translate(18.99088541666667 43.650607638888886)"/><path d="M2753.18 294.37a6 6 0 0 1 6-6h88a6 6 0 0 1 6 6v48a6 6 0 0 1-6 6h-88a6 6 0 0 1-6-6z" stroke="#000" stroke-opacity="0" stroke-width="3" fill="#fff" fill-opacity="0"/><use xlink:href="#a" transform="matrix(1,0,0,1,2758.1810440457107,293.3681996363066) translate(35.66514756944444 32.150607638888886)"/><path d="M2940 198.28a6 6 0 0 1 6-6h96.22c54 0 97.78 43.78 97.78 97.78s-43.78 97.78-97.78 97.78H2946a6 6 0 0 1-6-6zM2940 340c0 11.05-8.95 20-20 20s-20-8.95-20-20 8.95-20 20-20 20 8.95 20 20z" stroke="#000" stroke-width="3" fill="#fff"/><path d="M2880.75 345.14h-167.3" stroke="#000" stroke-width="2" fill="none"/><path d="M2896.02 345.14l-14.27 4.64v-9.27z" stroke="#000" stroke-width="2"/><path d="M2713.47 346.12h-1.03v-1.95h1.03z" stroke="#000" stroke-width=".05"/><path d="M2789.3 369.8l49.42-60.84" stroke="#333" stroke-width="3" fill="none"/><path d="M2929.5 250.7h-586.76a6 6 0 0 0-6 6v104.62" stroke="#000" stroke-width="2" fill="none"/><path d="M2936.54 250.7l-12.92 7.65v-15.27z" stroke="#000" stroke-width="2"/><path d="M2336.74 361.3v1M3142.5 290.06h246.28" stroke="#000" stroke-width="2" fill="none"/><path d="M3142.53 291.04h-1.05l.02-.97-.02-.98h1.05z" stroke="#000" stroke-width=".05"/><path d="M3395.8 290.06l-12.9 7.64v-15.27z" stroke="#000" stroke-width="2"/><path d="M3455 340.06l-55-50 55-50 105 .56v98.88z" stroke="#000" stroke-width="3" fill="#fff"/><path d="M3420 266.06a6 6 0 0 1 6-6h128a6 6 0 0 1 6 6v48a6 6 0 0 1-6 6h-128a6 6 0 0 1-6-6z" stroke="#000" stroke-opacity="0" stroke-width="3" fill="#fff" fill-opacity="0"/><use xlink:href="#q" transform="matrix(1,0,0,1,3425,265.06140375087637) translate(8.990885416666671 32.150607638888886)"/><path d="M3200 246.06a6 6 0 0 1 6-6h88a6 6 0 0 1 6 6v48a6 6 0 0 1-6 6h-88a6 6 0 0 1-6-6z" stroke="#000" stroke-opacity="0" stroke-width="3" fill="#fff" fill-opacity="0"/><use xlink:href="#a" transform="matrix(1,0,0,1,3205,245.06140375087637) translate(35.66514756944444 32.150607638888886)"/><path d="M3236.1 321.48l49.44-60.83" stroke="#333" stroke-width="3" fill="none"/><path d="M2891.74 344.14V308.9a3.76 3.76 0 0 1 3.76-3.76 3.76 3.76 0 0 1 3.76 3.76v35.24M2899.26 344.12v1.02" stroke="#000" stroke-opacity="0" stroke-width="2" fill="none"/><defs><path d="M708-869c260 2 424 154 372 425-54 284-253 464-590 464C243 20 91-77 84-315l186-21c11 141 96 212 253 209 216-5 334-129 370-313 35-180-76-283-251-282-126 0-208 47-281 101H185l188-728h801l-28 145H511L399-779c77-49 180-91 309-90" id="r"/><use transform="matrix(0.015190972222222219,0,0,0.015190972222222219,0,0)" xlink:href="#r" id="a"/><path fill="#333" d="M212-179c-10-28-35-45-73-45-59 0-87 40-87 99 0 60 29 101 89 101 43 0 62-24 78-52l27 14C228-24 195 4 139 4 59 4 22-46 18-125c-6-104 99-153 187-111 19 9 31 26 39 46" id="s"/><path fill="#333" d="M140-251c81 0 123 46 123 126C263-46 219 4 140 4 59 4 17-45 17-125s42-126 123-126zm0 227c63 0 89-41 89-101s-29-99-89-99c-61 0-89 39-89 99S79-25 140-24" id="t"/><path fill="#333" d="M232-93c-1 65-40 97-104 97C67 4 28-28 28-90v-158h33c8 89-33 224 67 224 102 0 64-133 71-224h33v155" id="u"/><path fill="#333" d="M190 0L58-211 59 0H30v-248h39L202-35l-2-213h31V0h-41" id="v"/><path fill="#333" d="M127-220V0H93v-220H8v-28h204v28h-85" id="w"/><path fill="#333" d="M30 0v-248h187v28H63v79h144v27H63v87h162V0H30" id="x"/><path fill="#333" d="M233-177c-1 41-23 64-60 70L243 0h-38l-65-103H63V0H30v-248c88 3 205-21 203 71zM63-129c60-2 137 13 137-47 0-61-80-42-137-45v92" id="y"/><g id="b"><use transform="matrix(0.1419753086419752,0,0,0.1419753086419752,0,0)" xlink:href="#s"/><use transform="matrix(0.1419753086419752,0,0,0.1419753086419752,36.77160493827157,0)" xlink:href="#t"/><use transform="matrix(0.1419753086419752,0,0,0.1419753086419752,76.52469135802463,0)" xlink:href="#u"/><use transform="matrix(0.1419753086419752,0,0,0.1419753086419752,113.29629629629619,0)" xlink:href="#v"/><use transform="matrix(0.1419753086419752,0,0,0.1419753086419752,150.06790123456776,0)" xlink:href="#w"/><use transform="matrix(0.1419753086419752,0,0,0.1419753086419752,181.16049382716034,0)" xlink:href="#x"/><use transform="matrix(0.1419753086419752,0,0,0.1419753086419752,215.23456790123439,0)" xlink:href="#y"/></g><path d="M101-842v-223h1027v223H101zm0 551v-221h1027v221H101" id="z"/><use transform="matrix(0.04448784722222214,0,0,0.04448784722222214,0,0)" xlink:href="#z" id="c"/><path d="M873-819c-18-114-119-146-250-146-163 0-245 50-245 151 0 151 170 148 294 185 182 54 388 94 388 320 0 240-189 325-439 329-245 4-410-69-454-268l159-31c24 133 136 168 295 165 144-2 270-31 270-171 0-164-195-160-331-202-167-52-350-87-350-299 0-218 173-315 413-313 220 2 373 77 412 260" id="A"/><path d="M-5 220v-96h1238v96H-5" id="B"/><path d="M631 20c-350 0-501-215-501-562 0-355 162-560 502-560 250 0 399 118 446 323l-192 14c-23-124-109-196-262-196-242 0-305 171-305 415 1 245 61 427 304 427 151 0 248-77 267-215l190 12C1039-107 883 20 631 20" id="C"/><path d="M615-1102c343 0 484 203 482 560-1 347-147 562-488 562-336 0-475-219-479-562-4-349 156-560 485-560zm-8 989c240 0 301-180 301-429 0-245-55-427-290-427-236 0-299 181-299 427 0 243 61 429 288 429" id="D"/><path d="M528 20c-247 0-343-132-343-381v-721h180v686c-4 177 45 284 224 277 194-8 279-136 279-336v-627h181c3 360-6 732 6 1082H885c-4-54-7-126-8-185h-3C809-64 714 20 528 20" id="E"/><path d="M706-1102c241 0 344 136 343 381V0H868v-695c1-168-57-273-220-268-190 6-283 138-283 336V0H185c-3-360 6-732-6-1082h170c4 54 7 126 8 185h3c63-121 164-204 346-205" id="F"/><path d="M682 16c-209 0-323-80-324-285v-671H190v-142h170l58-282h120v282h432v142H538v652c2 114 60 155 182 155 106 0 209-16 297-34v137C921-4 806 16 682 16" id="G"/><path d="M617-1102c355 0 481 238 477 599H322c5 222 84 388 301 388 144 0 244-59 284-166l158 45C1002-72 854 20 623 20c-342 0-490-220-490-568 0-346 151-554 484-554zm291 461c-18-192-90-328-289-328-194 0-287 128-295 328h584" id="H"/><path d="M839-1102c70 0 148 7 206 17v167c-112-18-268-36-363 15-129 69-208 203-208 395V0H294c-10-367 32-789-52-1082h171c21 75 41 161 48 250h5c67-152 152-270 373-270" id="I"/><g id="d"><use transform="matrix(0.015190972222222219,0,0,0.015190972222222219,0,0)" xlink:href="#A"/><use transform="matrix(0.015190972222222219,0,0,0.015190972222222219,18.669704861111107,0)" xlink:href="#B"/><use transform="matrix(0.015190972222222219,0,0,0.015190972222222219,37.339409722222214,0)" xlink:href="#C"/><use transform="matrix(0.015190972222222219,0,0,0.015190972222222219,56.00911458333332,0)" xlink:href="#D"/><use transform="matrix(0.015190972222222219,0,0,0.015190972222222219,74.67881944444443,0)" xlink:href="#E"/><use transform="matrix(0.015190972222222219,0,0,0.015190972222222219,93.34852430555554,0)" xlink:href="#F"/><use transform="matrix(0.015190972222222219,0,0,0.015190972222222219,112.01822916666666,0)" xlink:href="#G"/><use transform="matrix(0.015190972222222219,0,0,0.015190972222222219,130.68793402777777,0)" xlink:href="#H"/><use transform="matrix(0.015190972222222219,0,0,0.015190972222222219,149.35763888888889,0)" xlink:href="#I"/><use transform="matrix(0.015190972222222219,0,0,0.015190972222222219,168.02734375,0)" xlink:href="#B"/><use transform="matrix(0.015190972222222219,0,0,0.015190972222222219,186.69704861111111,0)" xlink:href="#D"/><use transform="matrix(0.015190972222222219,0,0,0.015190972222222219,205.36675347222223,0)" xlink:href="#E"/><use transform="matrix(0.015190972222222219,0,0,0.015190972222222219,224.03645833333334,0)" xlink:href="#G"/></g><path d="M261-1120c230-8 401-96 507-229h166L700-145h353L1025 0H52l28-145h439l199-1021c-97 119-281 184-486 194" id="J"/><path d="M738-881c255-2 394 171 340 435-55 272-226 466-546 466-269 0-385-164-385-433 0-319 112-596 263-770 113-131 305-226 538-172 129 30 201 123 215 272l-179 31c-10-114-82-172-198-172-201 0-290 148-359 302-29 65-50 141-67 227 78-109 205-184 378-186zM336-481c-38 188 35 356 218 356 217 0 323-155 346-355 20-169-70-262-232-262-179 0-300 105-332 261" id="K"/><g id="e"><use transform="matrix(0.015190972222222219,0,0,0.015190972222222219,0,0)" xlink:href="#J"/><use transform="matrix(0.015190972222222219,0,0,0.015190972222222219,18.669704861111107,0)" xlink:href="#K"/></g><path d="M932 0L611-444 288 0H94l415-556-397-526h199l300 421 298-421h201L713-558 1133 0H932" id="L"/><path d="M908-845H766l-40-639h224zm-449 0H318l-41-639h224" id="M"/><path d="M1065-1013c47 164 49 500-1 665C999-130 875 20 611 20c-377 0-484-300-487-695-2-245 41-425 141-551 77-98 191-144 352-144 261 0 386 140 448 357zM741-155c199-92 203-504 159-785-26-168-96-284-283-284-281 0-308 256-311 549-2 181 18 324 80 428 46 77 115 118 227 120 47 0 90-10 128-28" id="N"/><path d="M385-1193v494h676v158H385V0H194v-1349h891v156H385" id="O"/><g id="f"><use transform="matrix(0.015190972222222219,0,0,0.015190972222222219,0,0)" xlink:href="#L"/><use transform="matrix(0.015190972222222219,0,0,0.015190972222222219,18.669704861111107,0)" xlink:href="#M"/><use transform="matrix(0.015190972222222219,0,0,0.015190972222222219,37.339409722222214,0)" xlink:href="#N"/><use transform="matrix(0.015190972222222219,0,0,0.015190972222222219,56.00911458333332,0)" xlink:href="#N"/><use transform="matrix(0.015190972222222219,0,0,0.015190972222222219,74.67881944444443,0)" xlink:href="#N"/><use transform="matrix(0.015190972222222219,0,0,0.015190972222222219,93.34852430555554,0)" xlink:href="#O"/><use transform="matrix(0.015190972222222219,0,0,0.015190972222222219,112.01822916666666,0)" xlink:href="#M"/></g><g id="g"><use transform="matrix(0.015190972222222219,0,0,0.015190972222222219,0,0)" xlink:href="#A"/><use transform="matrix(0.015190972222222219,0,0,0.015190972222222219,18.669704861111107,0)" xlink:href="#B"/><use transform="matrix(0.015190972222222219,0,0,0.015190972222222219,37.339409722222214,0)" xlink:href="#H"/><use transform="matrix(0.015190972222222219,0,0,0.015190972222222219,56.00911458333332,0)" xlink:href="#F"/></g><path d="M365-904c58-129 161-200 334-200 130 0 228 46 293 138s98 233 98 420c0 189-34 331-102 425S824 20 698 20c-170 0-275-64-336-184 0 55-3 116-9 164H179c5-68 6-147 6-223v-1261h180c-2 193 4 394-4 580h4zm283 791c221 0 256-197 256-427 0-229-34-425-254-425-236 0-285 195-285 441 0 237 53 411 283 411" id="P"/><g id="h"><use transform="matrix(0.015190972222222219,0,0,0.015190972222222219,0,0)" xlink:href="#P"/><use transform="matrix(0.015190972222222219,0,0,0.015190972222222219,18.669704861111107,0)" xlink:href="#G"/><use transform="matrix(0.015190972222222219,0,0,0.015190972222222219,37.339409722222214,0)" xlink:href="#F"/></g><path fill="#333" d="M30-248c118-7 216 8 213 122C240-48 200 0 122 0H30v-248zM63-27c89 8 146-16 146-99s-60-101-146-95v194" id="Q"/><use transform="matrix(0.13580246913580238,0,0,0.13580246913580238,0,0)" xlink:href="#Q" id="i"/><path fill="#333" d="M63-220v92h138v28H63V0H30v-248h175v28H63" id="R"/><path fill="#333" d="M16-82v-28h88v28H16" id="S"/><g id="j"><use transform="matrix(0.13580246913580238,0,0,0.13580246913580238,0,0)" xlink:href="#R"/><use transform="matrix(0.13580246913580238,0,0,0.13580246913580238,29.74074074074072,0)" xlink:href="#S"/><use transform="matrix(0.13580246913580238,0,0,0.13580246913580238,45.9012345679012,0)" xlink:href="#R"/></g><path d="M473-1349c438-1 655 221 652 661C1122-268 945-8 532 0H162v-1349h311zm42 1193c308-4 416-205 418-532 2-330-131-509-459-505H353v1037h162" id="T"/><use transform="matrix(0.015190972222222219,0,0,0.015190972222222219,0,0)" xlink:href="#T" id="k"/><path d="M102-681c0-398 126-689 513-689 165 0 291 58 379 174s132 287 132 515c0 353-105 610-380 685 49 143 111 234 276 240 36 1 86-7 115-13v134c-94 24-238 34-327-3-143-59-210-191-259-346-336-41-449-320-449-697zm749 406c94-160 97-656-5-807-57-85-130-132-231-132-104 0-178 47-234 132-101 153-99 655 1 809 57 89 130 138 232 138 109 0 184-49 237-140" id="U"/><use transform="matrix(0.015190972222222219,0,0,0.015190972222222219,0,0)" xlink:href="#U" id="l"/><path d="M162 0v-1349h919v156H353v422h668v154H353v461h769V0H162" id="V"/><path d="M912-211c-10-84-18-177-18-274v-864h172V0H836L316-1130c7 79 16 167 16 254V0H162v-1349h222" id="W"/><g id="m"><use transform="matrix(0.015190972222222219,0,0,0.015190972222222219,0,0)" xlink:href="#V"/><use transform="matrix(0.015190972222222219,0,0,0.015190972222222219,18.669704861111107,0)" xlink:href="#W"/></g><path d="M1048-32c-2 300-135 456-433 456-222-1-358-88-400-267l184-25c22 99 100 157 222 156 184-2 248-125 248-315 0-64 3-133-2-194C807-100 706-13 524-12c-306 0-381-228-381-537 0-318 85-550 400-550 164 0 271 83 325 202h3c1-60 3-134 12-185h171c-13 339-4 702-6 1050zM585-145c210-8 284-178 284-406 0-192-52-331-177-392-33-16-69-22-104-22-223 2-259 184-259 414 0 229 31 415 256 406" id="X"/><path d="M148-1120c216-7 379-89 463-229h166v1204h353V0H157v-145h439v-1021c-79 124-254 184-448 194v-148" id="Y"/><g id="n"><use transform="matrix(0.015190972222222219,0,0,0.015190972222222219,0,0)" xlink:href="#A"/><use transform="matrix(0.015190972222222219,0,0,0.015190972222222219,18.669704861111107,0)" xlink:href="#B"/><use transform="matrix(0.015190972222222219,0,0,0.015190972222222219,37.339409722222214,0)" xlink:href="#I"/><use transform="matrix(0.015190972222222219,0,0,0.015190972222222219,56.00911458333332,0)" xlink:href="#H"/><use transform="matrix(0.015190972222222219,0,0,0.015190972222222219,74.67881944444443,0)" xlink:href="#X"/><use transform="matrix(0.015190972222222219,0,0,0.015190972222222219,93.34852430555554,0)" xlink:href="#Y"/></g><path d="M611-1370c266 0 451 106 451 368 0 147-77 243-154 327-132 144-316 255-451 395-42 44-75 87-96 134h723V0H144v-117c124-264 387-411 582-603 73-72 151-147 151-271 0-161-104-231-266-231-163 0-249 90-268 238l-184-17c35-233 185-369 452-369" id="Z"/><g id="o"><use transform="matrix(0.015190972222222219,0,0,0.015190972222222219,0,0)" xlink:href="#A"/><use transform="matrix(0.015190972222222219,0,0,0.015190972222222219,18.669704861111107,0)" xlink:href="#B"/><use transform="matrix(0.015190972222222219,0,0,0.015190972222222219,37.339409722222214,0)" xlink:href="#I"/><use transform="matrix(0.015190972222222219,0,0,0.015190972222222219,56.00911458333332,0)" xlink:href="#H"/><use transform="matrix(0.015190972222222219,0,0,0.015190972222222219,74.67881944444443,0)" xlink:href="#X"/><use transform="matrix(0.015190972222222219,0,0,0.015190972222222219,93.34852430555554,0)" xlink:href="#Z"/></g><path d="M1060-1016c0 191-128 285-295 323v4c154 18 262 91 313 209 14 35 21 72 21 110 0 277-194 390-478 390-292 0-457-129-493-382l186-17c24 161 121 250 307 250 172 1 298-80 291-247-8-208-220-239-446-233v-156c217 9 409-34 409-232 0-152-102-225-264-225-159 0-264 88-278 233l-181-14c33-239 196-367 461-367 264 0 447 102 447 354" id="aa"/><g id="p"><use transform="matrix(0.015190972222222219,0,0,0.015190972222222219,0,0)" xlink:href="#A"/><use transform="matrix(0.015190972222222219,0,0,0.015190972222222219,18.669704861111107,0)" xlink:href="#B"/><use transform="matrix(0.015190972222222219,0,0,0.015190972222222219,37.339409722222214,0)" xlink:href="#I"/><use transform="matrix(0.015190972222222219,0,0,0.015190972222222219,56.00911458333332,0)" xlink:href="#H"/><use transform="matrix(0.015190972222222219,0,0,0.015190972222222219,74.67881944444443,0)" xlink:href="#X"/><use transform="matrix(0.015190972222222219,0,0,0.015190972222222219,93.34852430555554,0)" xlink:href="#aa"/></g><path d="M1000-272c3 95 12 159 101 161 21 0 41-3 59-7V-6c-44 10-86 16-139 16-141 2-191-84-197-217h-6C748-76 648 20 446 20c-207 0-318-120-318-322 0-266 194-348 454-354l236-4c12-191-40-305-222-305-140 0-220 47-232 172l-188-17c33-204 181-292 423-292 255 0 401 118 401 364v466zm-683-27c0 109 63 184 175 182 166-3 259-96 306-217 24-65 20-120 20-200-232 7-501-28-501 235" id="ab"/><path d="M736-142h380V0H134v-142h422v-1200H267v-142h469v1342" id="ac"/><g id="q"><use transform="matrix(0.015190972222222219,0,0,0.015190972222222219,0,0)" xlink:href="#H"/><use transform="matrix(0.015190972222222219,0,0,0.015190972222222219,18.669704861111107,0)" xlink:href="#F"/><use transform="matrix(0.015190972222222219,0,0,0.015190972222222219,37.339409722222214,0)" xlink:href="#ab"/><use transform="matrix(0.015190972222222219,0,0,0.015190972222222219,56.00911458333332,0)" xlink:href="#P"/><use transform="matrix(0.015190972222222219,0,0,0.015190972222222219,74.67881944444443,0)" xlink:href="#ac"/><use transform="matrix(0.015190972222222219,0,0,0.015190972222222219,93.34852430555554,0)" xlink:href="#H"/></g></defs></g></svg>